<?xml version="1.0" encoding="UTF-8"?>
<svg version="1.1" xmlns="http://www.w3.org/2000/svg" width="192" height="192">
<path d="M0 0 C63.36 0 126.72 0 192 0 C192 63.36 192 126.72 192 192 C128.64 192 65.28 192 0 192 C0 128.64 0 65.28 0 0 Z " fill="#FDFDFD" transform="translate(0,0)"/>
<path d="M0 0 C4.11194095 2.05597047 6.32350288 3.74247707 8 8 C8.34192522 12.82202237 7.47452291 16.28143674 4.8125 20.3125 C1.96331166 23.03505774 -0.46771037 25.23385519 -4 27 C-8.73001081 26.27230603 -12.76555515 22.40553639 -16 19 C-18.24808695 15.23093013 -18.45436575 12.3922022 -18 8 C-13.79128465 0.03350309 -8.54731332 -1.10548847 0 0 Z " fill="#2D3135" transform="translate(163,109)"/>
<path d="M0 0 C14.37377492 -0.44001352 14.37377492 -0.44001352 19 3 C21.99211333 5.83463368 22.90354501 7.33687192 23.5 11.4375 C22.90857987 15.65136846 21.71830137 17.75314003 19 21 C15.35625441 23.55234066 11.51765093 23.22906659 7.25 23.125 C4.8575 23.08375 2.465 23.0425 0 23 C0 15.41 0 7.82 0 0 Z " fill="#2C2F34" transform="translate(86,109)"/>
<path d="M0 0 C3.06627706 -0.21665549 6.11727238 -0.37459318 9.1875 -0.5 C10.05181641 -0.56703125 10.91613281 -0.6340625 11.80664062 -0.703125 C14.41656037 -0.78312254 16.48996821 -0.73307528 19 0 C21.37557511 2.35241788 22.64698509 4.97021925 24 8 C24.53367188 9.01707031 25.06734375 10.03414062 25.6171875 11.08203125 C26.03226563 11.98308594 26.44734375 12.88414063 26.875 13.8125 C27.30554688 14.72644531 27.73609375 15.64039062 28.1796875 16.58203125 C29 19 29 19 28 22 C24.93372294 22.21665549 21.88272762 22.37459318 18.8125 22.5 C17.51602539 22.60054687 17.51602539 22.60054687 16.19335938 22.703125 C13.58343963 22.78312254 11.51003179 22.73307528 9 22 C6.62442489 19.64758212 5.35301491 17.02978075 4 14 C3.46632813 12.98292969 2.93265625 11.96585938 2.3828125 10.91796875 C1.96773438 10.01691406 1.55265625 9.11585937 1.125 8.1875 C0.69445312 7.27355469 0.26390625 6.35960938 -0.1796875 5.41796875 C-1 3 -1 3 0 0 Z " fill="#F57325" transform="translate(111,74)"/>
<path d="M0 0 C0.78552246 0.01047363 1.57104492 0.02094727 2.38037109 0.03173828 C3.23115234 0.03818359 4.08193359 0.04462891 4.95849609 0.05126953 C6.29267578 0.07640625 6.29267578 0.07640625 7.65380859 0.10205078 C8.55099609 0.11107422 9.44818359 0.12009766 10.37255859 0.12939453 C12.59157445 0.15300108 14.81005937 0.18592768 17.02880859 0.22705078 C18.17989079 3.68029738 17.94289282 4.046369 16.44677734 7.16845703 C16.09164062 7.91675781 15.73650391 8.66505859 15.37060547 9.43603516 C14.9896875 10.21269531 14.60876953 10.98935547 14.21630859 11.78955078 C13.66233398 12.9603418 13.66233398 12.9603418 13.09716797 14.15478516 C10.31780621 19.93805317 10.31780621 19.93805317 8.02880859 22.22705078 C6.05761719 22.45410156 6.05761719 22.45410156 3.67724609 22.42236328 C2.82646484 22.41591797 1.97568359 22.40947266 1.09912109 22.40283203 C-0.23505859 22.37769531 -0.23505859 22.37769531 -1.59619141 22.35205078 C-2.94197266 22.33851562 -2.94197266 22.33851562 -4.31494141 22.32470703 C-6.53395726 22.30110048 -8.75244218 22.26817388 -10.97119141 22.22705078 C-12.12227361 18.77380418 -11.88527563 18.40773256 -10.38916016 15.28564453 C-10.03402344 14.53734375 -9.67888672 13.78904297 -9.31298828 13.01806641 C-8.93207031 12.24140625 -8.55115234 11.46474609 -8.15869141 10.66455078 C-7.6047168 9.49375977 -7.6047168 9.49375977 -7.03955078 8.29931641 C-3.22979886 0.37202291 -3.22979886 0.37202291 0 0 Z " fill="#F47225" transform="translate(63.97119140625,73.77294921875)"/>
<path d="M0 0 C0.72058594 -0.02900391 1.44117187 -0.05800781 2.18359375 -0.08789062 C5.46661261 -0.12719011 7.64869001 -0.01076881 10.3984375 1.85546875 C12.64997159 5.05957495 14.28198401 8.36859722 15.875 11.9375 C16.19082031 12.618125 16.50664063 13.29875 16.83203125 14 C19.125 19.02269345 19.125 19.02269345 19.125 21.3125 C16.07465704 21.6002682 13.16686119 21.73468002 10.125 21.3125 C6.99549683 17.9810934 6.23917934 13.68351124 5.125 9.3125 C1.825 9.6425 -1.475 9.9725 -4.875 10.3125 C-5.15214844 11.02277344 -5.42929688 11.73304687 -5.71484375 12.46484375 C-6.07707031 13.38394531 -6.43929687 14.30304688 -6.8125 15.25 C-7.17214844 16.16652344 -7.53179687 17.08304688 -7.90234375 18.02734375 C-8.875 20.3125 -8.875 20.3125 -9.875 21.3125 C-11.39428038 21.38429964 -12.91667482 21.39642007 -14.4375 21.375 C-15.26378906 21.36597656 -16.09007813 21.35695313 -16.94140625 21.34765625 C-17.89853516 21.33025391 -17.89853516 21.33025391 -18.875 21.3125 C-16.76023358 14.14579156 -13.92032029 7.62274892 -9.875 1.3125 C-6.74441914 -0.25279043 -3.43420992 0.04558686 0 0 Z " fill="#303338" transform="translate(95.875,74.6875)"/>
<path d="M0 0 C6 0 6 0 8.7734375 2.625 C9.65916389 3.73546293 10.52602485 4.86119345 11.375 6 C11.82488281 6.57234375 12.27476563 7.1446875 12.73828125 7.734375 C13.84205768 9.1434513 14.92332553 10.57010822 16 12 C16.33 8.04 16.66 4.08 17 0 C18.65 0 20.3 0 22 0 C23 1 23 1 23.11352539 3.13305664 C23.10828857 4.04949951 23.10305176 4.96594238 23.09765625 5.91015625 C23.09443359 6.89951172 23.09121094 7.88886719 23.08789062 8.90820312 C23.07951172 9.94912109 23.07113281 10.99003906 23.0625 12.0625 C23.05798828 13.10728516 23.05347656 14.15207031 23.04882812 15.22851562 C23.03699913 17.8190666 23.02051689 20.40950559 23 23 C20.3359375 23.375 20.3359375 23.375 17 23 C14.89794424 21.01044864 13.32680389 19.28278226 11.625 17 C11.17511719 16.42765625 10.72523437 15.8553125 10.26171875 15.265625 C9.15794232 13.8565487 8.07667447 12.42989178 7 11 C6.67 14.96 6.34 18.92 6 23 C4.02 23 2.04 23 0 23 C0 15.41 0 7.82 0 0 Z " fill="#2D3035" transform="translate(58,109)"/>
<path d="M0 0 C3.65316671 1.24976756 4.78065836 1.67098753 7 5 C7.125 8.1875 7.125 8.1875 7 11 C8.18078125 11.00257812 9.3615625 11.00515625 10.578125 11.0078125 C12.13545445 11.04533851 13.69274542 11.08448606 15.25 11.125 C16.02730469 11.12242188 16.80460937 11.11984375 17.60546875 11.1171875 C19.88329768 11.19506199 21.81615952 11.34041366 24 12 C28 16.60122699 28 16.60122699 28 20 C23.68751391 20.02886537 19.37505238 20.04675255 15.0625 20.0625 C13.83080078 20.07087891 12.59910156 20.07925781 11.33007812 20.08789062 C10.16025391 20.09111328 8.99042969 20.09433594 7.78515625 20.09765625 C6.15912476 20.10551147 6.15912476 20.10551147 4.50024414 20.11352539 C2 20 2 20 1 19 C0.92756516 15.63177974 1.00392059 12.27456608 1.0625 8.90625 C1.33751634 6.10693626 1.33751634 6.10693626 0 5 C-0.04063832 3.33382885 -0.042721 1.66611905 0 0 Z " fill="#F47021" transform="translate(97,45)"/>
<path d="M0 0 C0 1.65 0 3.3 0 5 C-0.99 5.495 -0.99 5.495 -2 6 C-1.75636719 6.84498047 -1.75636719 6.84498047 -1.5078125 7.70703125 C-0.97686383 10.10446869 -0.86689329 12.23522125 -0.875 14.6875 C-0.87113281 15.86892578 -0.87113281 15.86892578 -0.8671875 17.07421875 C-1 19 -1 19 -2 20 C-3.92667507 20.08748207 -5.85651861 20.10697334 -7.78515625 20.09765625 C-8.95498047 20.09443359 -10.12480469 20.09121094 -11.33007812 20.08789062 C-13.17762695 20.07532227 -13.17762695 20.07532227 -15.0625 20.0625 C-16.91584961 20.05573242 -16.91584961 20.05573242 -18.80664062 20.04882812 C-21.87114117 20.03699608 -24.93554721 20.02051173 -28 20 C-26.25 14.25 -26.25 14.25 -24 12 C-21.0906442 11.85482256 -18.280054 11.81369204 -15.375 11.875 C-14.57320312 11.88402344 -13.77140625 11.89304687 -12.9453125 11.90234375 C-10.96341477 11.92593777 -8.98167019 11.96180935 -7 12 C-7.04898438 10.7315625 -7.09796875 9.463125 -7.1484375 8.15625 C-7.23193359 5.99414062 -7.23193359 5.99414062 -7 4 C-3.2 0 -3.2 0 0 0 Z " fill="#F36E20" transform="translate(95,45)"/>
<path d="M0 0 C2.3125 -0.3125 2.3125 -0.3125 5 0 C6.5625 2 6.5625 2 8 5 C8.72827803 6.43795041 9.45748021 7.87543306 10.1875 9.3125 C10.785625 10.529375 11.38375 11.74625 12 13 C13.98 8.71 15.96 4.42 18 0 C19.65 0 21.3 0 23 0 C23.33 0.66 23.66 1.32 24 2 C23.30322266 4.04711914 23.30322266 4.04711914 22.1640625 6.53515625 C21.75929687 7.42654297 21.35453125 8.31792969 20.9375 9.23632812 C20.504375 10.16896484 20.07125 11.10160156 19.625 12.0625 C19.19960937 12.99900391 18.77421875 13.93550781 18.3359375 14.90039062 C15.16018233 21.83981767 15.16018233 21.83981767 14 23 C12.33382885 23.04063832 10.66611905 23.042721 9 23 C7.4908559 19.73330954 5.99428299 16.46101184 4.5 13.1875 C4.07074219 12.25873047 3.64148438 11.32996094 3.19921875 10.37304688 C2.79316406 9.48037109 2.38710937 8.58769531 1.96875 7.66796875 C1.59169922 6.84578857 1.21464844 6.0236084 0.82617188 5.17651367 C0 3 0 3 0 0 Z " fill="#2C3034" transform="translate(121,109)"/>
<path d="M0 0 C6.6 0 13.2 0 20 0 C20.33 1.32 20.66 2.64 21 4 C20.67 4.33 20.34 4.66 20 5 C17.69 5 15.38 5 13 5 C13 10.94 13 16.88 13 23 C11.02 23 9.04 23 7 23 C7 17.06 7 11.12 7 5 C4.69 5 2.38 5 0 5 C0 3.35 0 1.7 0 0 Z " fill="#2C3035" transform="translate(22,109)"/>
<path d="M0 0 C3.625 0.375 3.625 0.375 6.125 2 C7.625 4.375 7.625 4.375 7.6875 7.25 C6.31857201 11.2762588 4.59260234 13.33501711 1.625 16.375 C-0.375 16.375 -0.375 16.375 -1.91796875 15.08984375 C-6.375 10.27286223 -6.375 10.27286223 -6.375 5.5625 C-5.03510925 1.29159825 -4.49889159 0.49987684 0 0 Z " fill="#F5F3F1" transform="translate(157.375,113.625)"/>
<path d="M0 0 C1.65 0 3.3 0 5 0 C5 7.59 5 15.18 5 23 C3.02 23 1.04 23 -1 23 C-1.02887512 19.35418313 -1.04675585 15.70839537 -1.0625 12.0625 C-1.07087891 11.02158203 -1.07925781 9.98066406 -1.08789062 8.90820312 C-1.09272461 7.42416992 -1.09272461 7.42416992 -1.09765625 5.91015625 C-1.10289307 4.99371338 -1.10812988 4.07727051 -1.11352539 3.13305664 C-1 1 -1 1 0 0 Z " fill="#33373B" transform="translate(113,109)"/>
<path d="M0 0 C1.65 0 3.3 0 5 0 C5 7.59 5 15.18 5 23 C3.02 23 1.04 23 -1 23 C-1.02887512 19.35418313 -1.04675585 15.70839537 -1.0625 12.0625 C-1.07087891 11.02158203 -1.07925781 9.98066406 -1.08789062 8.90820312 C-1.09272461 7.42416992 -1.09272461 7.42416992 -1.09765625 5.91015625 C-1.10289307 4.99371338 -1.10812988 4.07727051 -1.11352539 3.13305664 C-1 1 -1 1 0 0 Z " fill="#36393E" transform="translate(47,109)"/>
<path d="M0 0 C7 0 7 0 9.5 1.5625 C11 4 11 4 11 7.5625 C10 11 10 11 8.3125 12.9375 C6 14 6 14 0 14 C0 9.38 0 4.76 0 0 Z " fill="#F8F8F8" transform="translate(92,114)"/>
<path d="M0 0 C6.27 0 12.54 0 19 0 C19 0.99 19 1.98 19 3 C12.73 3 6.46 3 0 3 C0 2.01 0 1.02 0 0 Z " fill="#F36A19" transform="translate(101,68)"/>
<path d="M0 0 C5.94 0 11.88 0 18 0 C18 0.99 18 1.98 18 3 C12.06 3 6.12 3 0 3 C0 2.01 0 1.02 0 0 Z " fill="#F36715" transform="translate(72,68)"/>
<path d="M0 0 C2.375 -0.125 2.375 -0.125 5 0 C5.66 0.66 6.32 1.32 7 2 C6.625 4.125 6.625 4.125 6 6 C3.625 6.625 3.625 6.625 1 7 C0.34 6.34 -0.32 5.68 -1 5 C-0.625 2.375 -0.625 2.375 0 0 Z " fill="#F36F24" transform="translate(155,117)"/>
<path d="M0 0 C1.65 0.33 3.3 0.66 5 1 C4.67 2.65 4.34 4.3 4 6 C2.35 5.67 0.7 5.34 -1 5 C-0.67 3.35 -0.34 1.7 0 0 Z " fill="#F37023" transform="translate(94,66)"/>
<path d="M0 0 C1.65 0 3.3 0 5 0 C4.67 1.65 4.34 3.3 4 5 C2.68 4.67 1.36 4.34 0 4 C0 2.68 0 1.36 0 0 Z " fill="#F26D23" transform="translate(64,67)"/>
<path d="M0 0 C2.475 0.495 2.475 0.495 5 1 C4.67 2.32 4.34 3.64 4 5 C2.68 4.67 1.36 4.34 0 4 C0 2.68 0 1.36 0 0 Z " fill="#F36E20" transform="translate(123,67)"/>
</svg>
